<svg xmlns="http://www.w3.org/2000/svg" width="20" height="20" fill="none" viewBox="0 0 20 20">
  <path stroke="currentColor" stroke-linecap="round" stroke-linejoin="round" stroke-width="1.667" d="M11.755 4.628a1.667 1.667 0 0 0 1.49 0l3.05-1.525a.833.833 0 0 1 1.205.746v10.637a.833.833 0 0 1-.46.745l-3.795 1.897a1.667 1.667 0 0 1-1.49 0l-3.51-1.755a1.667 1.667 0 0 0-1.49 0l-3.05 1.525a.833.833 0 0 1-1.205-.747V5.515a.833.833 0 0 1 .46-.745l3.795-1.897a1.667 1.667 0 0 1 1.49 0l3.51 1.755Zm.745.175v12.5m-5-14.606v12.5"/>
</svg>
